<svg xmlns="http://www.w3.org/2000/svg" xmlns:xlink="http://www.w3.org/1999/xlink" width="200" zoomAndPan="magnify" viewBox="0 0 150 149.999998" height="200" preserveAspectRatio="xMidYMid meet" version="1.0"><defs><g/><clipPath id="a24ca829e2"><path d="M 75 0 C 77.457031 0 79.90625 0.121094 82.351562 0.359375 C 84.796875 0.601562 87.222656 0.960938 89.632812 1.441406 C 92.039062 1.921875 94.421875 2.515625 96.769531 3.230469 C 99.121094 3.941406 101.433594 4.769531 103.703125 5.710938 C 105.96875 6.648438 108.1875 7.699219 110.355469 8.855469 C 112.519531 10.015625 114.625 11.273438 116.667969 12.640625 C 118.710938 14.003906 120.679688 15.464844 122.578125 17.023438 C 124.476562 18.582031 126.296875 20.230469 128.03125 21.96875 C 129.769531 23.703125 131.417969 25.523438 132.976562 27.421875 C 134.535156 29.320312 135.996094 31.289062 137.359375 33.332031 C 138.726562 35.375 139.984375 37.480469 141.144531 39.644531 C 142.300781 41.8125 143.351562 44.03125 144.289062 46.296875 C 145.230469 48.566406 146.058594 50.878906 146.769531 53.230469 C 147.484375 55.578125 148.078125 57.960938 148.558594 60.367188 C 149.039062 62.777344 149.398438 65.203125 149.640625 67.648438 C 149.878906 70.09375 150 72.542969 150 75 C 150 77.457031 149.878906 79.90625 149.640625 82.351562 C 149.398438 84.796875 149.039062 87.222656 148.558594 89.632812 C 148.078125 92.039062 147.484375 94.421875 146.769531 96.769531 C 146.058594 99.121094 145.230469 101.433594 144.289062 103.703125 C 143.351562 105.96875 142.300781 108.1875 141.144531 110.355469 C 139.984375 112.519531 138.726562 114.625 137.359375 116.667969 C 135.996094 118.710938 134.535156 120.679688 132.976562 122.578125 C 131.417969 124.476562 129.769531 126.296875 128.03125 128.03125 C 126.296875 129.769531 124.476562 131.417969 122.578125 132.976562 C 120.679688 134.535156 118.710938 135.996094 116.667969 137.359375 C 114.625 138.726562 112.519531 139.984375 110.355469 141.144531 C 108.1875 142.300781 105.96875 143.351562 103.703125 144.289062 C 101.433594 145.230469 99.121094 146.058594 96.769531 146.769531 C 94.421875 147.484375 92.039062 148.078125 89.632812 148.558594 C 87.222656 149.039062 84.796875 149.398438 82.351562 149.640625 C 79.90625 149.878906 77.457031 150 75 150 C 72.542969 150 70.09375 149.878906 67.648438 149.640625 C 65.203125 149.398438 62.777344 149.039062 60.367188 148.558594 C 57.960938 148.078125 55.578125 147.484375 53.230469 146.769531 C 50.878906 146.058594 48.566406 145.230469 46.296875 144.289062 C 44.03125 143.351562 41.8125 142.300781 39.644531 141.144531 C 37.480469 139.984375 35.375 138.726562 33.332031 137.359375 C 31.289062 135.996094 29.320312 134.535156 27.421875 132.976562 C 25.523438 131.417969 23.703125 129.769531 21.96875 128.03125 C 20.230469 126.296875 18.582031 124.476562 17.023438 122.578125 C 15.464844 120.679688 14.003906 118.710938 12.640625 116.667969 C 11.273438 114.625 10.015625 112.519531 8.855469 110.355469 C 7.699219 108.1875 6.648438 105.96875 5.710938 103.703125 C 4.769531 101.433594 3.941406 99.121094 3.230469 96.769531 C 2.515625 94.421875 1.921875 92.039062 1.441406 89.632812 C 0.960938 87.222656 0.601562 84.796875 0.359375 82.351562 C 0.121094 79.90625 0 77.457031 0 75 C 0 72.542969 0.121094 70.09375 0.359375 67.648438 C 0.601562 65.203125 0.960938 62.777344 1.441406 60.367188 C 1.921875 57.960938 2.515625 55.578125 3.230469 53.230469 C 3.941406 50.878906 4.769531 48.566406 5.710938 46.296875 C 6.648438 44.03125 7.699219 41.8125 8.855469 39.644531 C 10.015625 37.480469 11.273438 35.375 12.640625 33.332031 C 14.003906 31.289062 15.464844 29.320312 17.023438 27.421875 C 18.582031 25.523438 20.230469 23.703125 21.96875 21.96875 C 23.703125 20.230469 25.523438 18.582031 27.421875 17.023438 C 29.320312 15.464844 31.289062 14.003906 33.332031 12.640625 C 35.375 11.273438 37.480469 10.015625 39.644531 8.855469 C 41.8125 7.699219 44.03125 6.648438 46.296875 5.710938 C 48.566406 4.769531 50.878906 3.941406 53.230469 3.230469 C 55.578125 2.515625 57.960938 1.921875 60.367188 1.441406 C 62.777344 0.960938 65.203125 0.601562 67.648438 0.359375 C 70.09375 0.121094 72.542969 0 75 0 L 75 30 C 72.046875 30 69.117188 30.289062 66.222656 30.863281 C 63.324219 31.441406 60.507812 32.292969 57.777344 33.425781 C 55.050781 34.554688 52.457031 35.941406 50 37.582031 C 47.542969 39.226562 45.269531 41.089844 43.179688 43.179688 C 41.089844 45.269531 39.226562 47.542969 37.582031 50 C 35.941406 52.457031 34.554688 55.050781 33.425781 57.777344 C 32.292969 60.507812 31.441406 63.324219 30.863281 66.222656 C 30.289062 69.117188 30 72.046875 30 75 C 30 77.953125 30.289062 80.882812 30.863281 83.777344 C 31.441406 86.675781 32.292969 89.492188 33.425781 92.222656 C 34.554688 94.949219 35.941406 97.542969 37.582031 100 C 39.226562 102.457031 41.089844 104.730469 43.179688 106.820312 C 45.269531 108.910156 47.542969 110.773438 50 112.417969 C 52.457031 114.058594 55.050781 115.445312 57.777344 116.574219 C 60.507812 117.707031 63.324219 118.558594 66.222656 119.136719 C 69.117188 119.710938 72.046875 120 75 120 C 77.953125 120 80.882812 119.710938 83.777344 119.136719 C 86.675781 118.558594 89.492188 117.707031 92.222656 116.574219 C 94.949219 115.445312 97.542969 114.058594 100 112.417969 C 102.457031 110.773438 104.730469 108.910156 106.820312 106.820312 C 108.910156 104.730469 110.773438 102.457031 112.417969 100 C 114.058594 97.542969 115.445312 94.949219 116.574219 92.222656 C 117.707031 89.492188 118.558594 86.675781 119.136719 83.777344 C 119.710938 80.882812 120 77.953125 120 75 C 120 72.046875 119.710938 69.117188 119.136719 66.222656 C 118.558594 63.324219 117.707031 60.507812 116.574219 57.777344 C 115.445312 55.050781 114.058594 52.457031 112.417969 50 C 110.773438 47.542969 108.910156 45.269531 106.820312 43.179688 C 104.730469 41.089844 102.457031 39.226562 100 37.582031 C 97.542969 35.941406 94.949219 34.554688 92.222656 33.425781 C 89.492188 32.292969 86.675781 31.441406 83.777344 30.863281 C 80.882812 30.289062 77.953125 30 75 30 Z M 75 0 " clip-rule="nonzero"/></clipPath><clipPath id="d0d76c9098"><path d="M 71 1 L 150 1 L 150 149 L 71 149 Z M 71 1 " clip-rule="nonzero"/></clipPath><clipPath id="6ffa553dc5"><path d="M 93.75 2.382812 C 97.84375 3.4375 101.820312 4.832031 105.675781 6.558594 C 109.535156 8.289062 113.21875 10.328125 116.730469 12.683594 C 120.242188 15.035156 123.535156 17.664062 126.601562 20.574219 C 129.667969 23.480469 132.472656 26.625 135.007812 30.007812 C 137.542969 33.390625 139.777344 36.960938 141.707031 40.722656 C 143.640625 44.480469 145.242188 48.378906 146.515625 52.410156 C 147.789062 56.441406 148.714844 60.550781 149.292969 64.738281 C 149.871094 68.925781 150.097656 73.128906 149.964844 77.355469 C 149.832031 81.582031 149.34375 85.765625 148.503906 89.90625 C 147.664062 94.050781 146.480469 98.09375 144.957031 102.039062 C 143.433594 105.980469 141.589844 109.765625 139.425781 113.398438 C 137.261719 117.03125 134.804688 120.453125 132.0625 123.671875 C 129.320312 126.886719 126.328125 129.847656 123.082031 132.558594 C 119.835938 135.269531 116.390625 137.6875 112.734375 139.816406 C 109.082031 141.941406 105.277344 143.746094 101.316406 145.230469 C 97.359375 146.714844 93.304688 147.855469 89.152344 148.652344 C 87.199219 149.027344 85.25 149.015625 83.300781 148.613281 C 81.351562 148.214844 79.554688 147.457031 77.90625 146.339844 C 76.261719 145.222656 74.890625 143.835938 73.796875 142.175781 C 72.703125 140.511719 71.96875 138.707031 71.59375 136.753906 C 71.214844 134.800781 71.230469 132.847656 71.628906 130.898438 C 72.03125 128.953125 72.789062 127.152344 73.90625 125.507812 C 75.019531 123.859375 76.410156 122.492188 78.070312 121.394531 C 79.730469 120.300781 81.539062 119.566406 83.492188 119.191406 C 85.984375 118.710938 88.414062 118.027344 90.789062 117.136719 C 93.164062 116.25 95.449219 115.164062 97.640625 113.890625 C 99.832031 112.613281 101.902344 111.160156 103.847656 109.535156 C 105.796875 107.910156 107.59375 106.132812 109.238281 104.203125 C 110.882812 102.273438 112.355469 100.21875 113.65625 98.039062 C 114.953125 95.859375 116.058594 93.589844 116.972656 91.222656 C 117.886719 88.855469 118.597656 86.429688 119.101562 83.945312 C 119.605469 81.460938 119.898438 78.949219 119.976562 76.414062 C 120.058594 73.878906 119.921875 71.355469 119.578125 68.84375 C 119.230469 66.328125 118.675781 63.863281 117.910156 61.445312 C 117.144531 59.027344 116.183594 56.6875 115.023438 54.433594 C 113.867188 52.175781 112.527344 50.035156 111.003906 48.003906 C 109.484375 45.976562 107.800781 44.089844 105.960938 42.34375 C 104.121094 40.597656 102.144531 39.019531 100.039062 37.609375 C 97.929688 36.199219 95.71875 34.972656 93.40625 33.9375 C 91.089844 32.898438 88.707031 32.0625 86.25 31.429688 C 84.324219 30.933594 82.566406 30.085938 80.976562 28.886719 C 79.386719 27.691406 78.089844 26.238281 77.078125 24.523438 C 76.066406 22.808594 75.425781 20.96875 75.148438 19 C 74.871094 17.027344 74.980469 15.082031 75.476562 13.15625 C 75.972656 11.230469 76.820312 9.472656 78.015625 7.882812 C 79.214844 6.292969 80.667969 4.992188 82.382812 3.984375 C 84.09375 2.972656 85.9375 2.328125 87.90625 2.050781 C 89.875 1.773438 91.824219 1.882812 93.75 2.382812 Z M 93.75 2.382812 " clip-rule="nonzero"/></clipPath></defs><g clip-path="url(#a24ca829e2)"><rect x="-15" width="180" fill="#000000" y="-15" height="179.999997" fill-opacity="1"/></g><g clip-path="url(#d0d76c9098)"><g clip-path="url(#6ffa553dc5)"><rect x="-15" width="180" fill="#7cc6fe" y="-15" height="179.999997" fill-opacity="1"/></g></g><g fill="#42351f" fill-opacity="1"><g transform="translate(34.608152, 82.03275)"><g><path d="M 19.921875 -23.515625 C 18.328125 -19.523438 16.671875 -15.578125 14.953125 -11.671875 C 13.242188 -7.765625 11.476562 -3.875 9.65625 0 L 5.8125 0 C 7.65625 -3.789062 9.445312 -7.601562 11.1875 -11.4375 C 12.9375 -15.269531 14.625 -19.148438 16.25 -23.078125 L 2.171875 -23.078125 L 2.171875 -26.1875 L 19.921875 -26.1875 Z M 19.921875 -23.515625 "/></g></g></g><g fill="#42351f" fill-opacity="1"><g transform="translate(56.933791, 82.03275)"><g><path d="M 11.15625 -26.671875 C 13.207031 -26.671875 14.9375 -26.140625 16.34375 -25.078125 C 17.757812 -24.015625 18.84375 -22.460938 19.59375 -20.421875 C 20.34375 -18.390625 20.71875 -15.925781 20.71875 -13.03125 C 20.71875 -10.164062 20.34375 -7.726562 19.59375 -5.71875 C 18.84375 -3.707031 17.753906 -2.171875 16.328125 -1.109375 C 14.898438 -0.046875 13.175781 0.484375 11.15625 0.484375 C 9.132812 0.484375 7.410156 -0.046875 5.984375 -1.109375 C 4.566406 -2.171875 3.484375 -3.707031 2.734375 -5.71875 C 1.984375 -7.726562 1.609375 -10.164062 1.609375 -13.03125 C 1.609375 -15.925781 1.984375 -18.390625 2.734375 -20.421875 C 3.484375 -22.460938 4.5625 -24.015625 5.96875 -25.078125 C 7.382812 -26.140625 9.113281 -26.671875 11.15625 -26.671875 Z M 11.15625 -2.546875 C 13.082031 -2.546875 14.535156 -3.4375 15.515625 -5.21875 C 16.503906 -7.007812 17 -9.613281 17 -13.03125 C 17 -16.5 16.503906 -19.132812 15.515625 -20.9375 C 14.535156 -22.738281 13.082031 -23.640625 11.15625 -23.640625 C 9.238281 -23.640625 7.785156 -22.738281 6.796875 -20.9375 C 5.804688 -19.132812 5.3125 -16.5 5.3125 -13.03125 C 5.3125 -9.613281 5.804688 -7.007812 6.796875 -5.21875 C 7.785156 -3.4375 9.238281 -2.546875 11.15625 -2.546875 Z M 11.15625 -2.546875 "/></g></g></g><g fill="#42351f" fill-opacity="1"><g transform="translate(79.25943, 82.03275)"><g><path d="M 10.03125 0 L 23.03125 -26.1875 L 26.0625 -26.1875 L 13.0625 0 Z M 28.34375 -15.25 C 30.414062 -15.25 31.992188 -14.566406 33.078125 -13.203125 C 34.171875 -11.835938 34.71875 -9.910156 34.71875 -7.421875 C 34.71875 -4.921875 34.160156 -2.992188 33.046875 -1.640625 C 31.929688 -0.296875 30.363281 0.375 28.34375 0.375 C 26.320312 0.375 24.753906 -0.296875 23.640625 -1.640625 C 22.535156 -2.992188 21.984375 -4.921875 21.984375 -7.421875 C 21.984375 -9.910156 22.523438 -11.835938 23.609375 -13.203125 C 24.691406 -14.566406 26.269531 -15.25 28.34375 -15.25 Z M 28.34375 -1.984375 C 29.519531 -1.984375 30.394531 -2.441406 30.96875 -3.359375 C 31.539062 -4.285156 31.828125 -5.640625 31.828125 -7.421875 C 31.828125 -9.210938 31.539062 -10.570312 30.96875 -11.5 C 30.394531 -12.425781 29.519531 -12.890625 28.34375 -12.890625 C 27.175781 -12.890625 26.300781 -12.425781 25.71875 -11.5 C 25.144531 -10.570312 24.859375 -9.210938 24.859375 -7.421875 C 24.859375 -5.640625 25.144531 -4.285156 25.71875 -3.359375 C 26.300781 -2.441406 27.175781 -1.984375 28.34375 -1.984375 Z M 7.75 -26.5625 C 9.820312 -26.5625 11.398438 -25.878906 12.484375 -24.515625 C 13.578125 -23.148438 14.125 -21.222656 14.125 -18.734375 C 14.125 -16.234375 13.566406 -14.304688 12.453125 -12.953125 C 11.335938 -11.609375 9.769531 -10.9375 7.75 -10.9375 C 5.726562 -10.9375 4.160156 -11.609375 3.046875 -12.953125 C 1.941406 -14.304688 1.390625 -16.234375 1.390625 -18.734375 C 1.390625 -21.222656 1.929688 -23.148438 3.015625 -24.515625 C 4.097656 -25.878906 5.675781 -26.5625 7.75 -26.5625 Z M 7.75 -13.296875 C 8.925781 -13.296875 9.800781 -13.753906 10.375 -14.671875 C 10.945312 -15.597656 11.234375 -16.953125 11.234375 -18.734375 C 11.234375 -20.523438 10.945312 -21.882812 10.375 -22.8125 C 9.800781 -23.738281 8.925781 -24.203125 7.75 -24.203125 C 6.582031 -24.203125 5.707031 -23.738281 5.125 -22.8125 C 4.550781 -21.882812 4.265625 -20.523438 4.265625 -18.734375 C 4.265625 -16.953125 4.550781 -15.597656 5.125 -14.671875 C 5.707031 -13.753906 6.582031 -13.296875 7.75 -13.296875 Z M 7.75 -13.296875 "/></g></g></g></svg>