<svg xmlns="http://www.w3.org/2000/svg" xmlns:xlink="http://www.w3.org/1999/xlink" width="200" zoomAndPan="magnify" viewBox="0 0 150 149.999998" height="200" preserveAspectRatio="xMidYMid meet" version="1.0"><defs><clipPath id="eeb3de9c8f"><path d="M 75 0 C 77.457031 0 79.90625 0.121094 82.351562 0.359375 C 84.796875 0.601562 87.222656 0.960938 89.632812 1.441406 C 92.039062 1.921875 94.421875 2.515625 96.769531 3.230469 C 99.121094 3.941406 101.433594 4.769531 103.703125 5.710938 C 105.96875 6.648438 108.1875 7.699219 110.355469 8.855469 C 112.519531 10.015625 114.625 11.273438 116.667969 12.640625 C 118.710938 14.003906 120.679688 15.464844 122.578125 17.023438 C 124.476562 18.582031 126.296875 20.230469 128.03125 21.96875 C 129.769531 23.703125 131.417969 25.523438 132.976562 27.421875 C 134.535156 29.320312 135.996094 31.289062 137.359375 33.332031 C 138.726562 35.375 139.984375 37.480469 141.144531 39.644531 C 142.300781 41.8125 143.351562 44.03125 144.289062 46.296875 C 145.230469 48.566406 146.058594 50.878906 146.769531 53.230469 C 147.484375 55.578125 148.078125 57.960938 148.558594 60.367188 C 149.039062 62.777344 149.398438 65.203125 149.640625 67.648438 C 149.878906 70.09375 150 72.542969 150 75 C 150 77.457031 149.878906 79.90625 149.640625 82.351562 C 149.398438 84.796875 149.039062 87.222656 148.558594 89.632812 C 148.078125 92.039062 147.484375 94.421875 146.769531 96.769531 C 146.058594 99.121094 145.230469 101.433594 144.289062 103.703125 C 143.351562 105.96875 142.300781 108.1875 141.144531 110.355469 C 139.984375 112.519531 138.726562 114.625 137.359375 116.667969 C 135.996094 118.710938 134.535156 120.679688 132.976562 122.578125 C 131.417969 124.476562 129.769531 126.296875 128.03125 128.03125 C 126.296875 129.769531 124.476562 131.417969 122.578125 132.976562 C 120.679688 134.535156 118.710938 135.996094 116.667969 137.359375 C 114.625 138.726562 112.519531 139.984375 110.355469 141.144531 C 108.1875 142.300781 105.96875 143.351562 103.703125 144.289062 C 101.433594 145.230469 99.121094 146.058594 96.769531 146.769531 C 94.421875 147.484375 92.039062 148.078125 89.632812 148.558594 C 87.222656 149.039062 84.796875 149.398438 82.351562 149.640625 C 79.90625 149.878906 77.457031 150 75 150 C 72.542969 150 70.09375 149.878906 67.648438 149.640625 C 65.203125 149.398438 62.777344 149.039062 60.367188 148.558594 C 57.960938 148.078125 55.578125 147.484375 53.230469 146.769531 C 50.878906 146.058594 48.566406 145.230469 46.296875 144.289062 C 44.03125 143.351562 41.8125 142.300781 39.644531 141.144531 C 37.480469 139.984375 35.375 138.726562 33.332031 137.359375 C 31.289062 135.996094 29.320312 134.535156 27.421875 132.976562 C 25.523438 131.417969 23.703125 129.769531 21.96875 128.03125 C 20.230469 126.296875 18.582031 124.476562 17.023438 122.578125 C 15.464844 120.679688 14.003906 118.710938 12.640625 116.667969 C 11.273438 114.625 10.015625 112.519531 8.855469 110.355469 C 7.699219 108.1875 6.648438 105.96875 5.710938 103.703125 C 4.769531 101.433594 3.941406 99.121094 3.230469 96.769531 C 2.515625 94.421875 1.921875 92.039062 1.441406 89.632812 C 0.960938 87.222656 0.601562 84.796875 0.359375 82.351562 C 0.121094 79.90625 0 77.457031 0 75 C 0 72.542969 0.121094 70.09375 0.359375 67.648438 C 0.601562 65.203125 0.960938 62.777344 1.441406 60.367188 C 1.921875 57.960938 2.515625 55.578125 3.230469 53.230469 C 3.941406 50.878906 4.769531 48.566406 5.710938 46.296875 C 6.648438 44.03125 7.699219 41.8125 8.855469 39.644531 C 10.015625 37.480469 11.273438 35.375 12.640625 33.332031 C 14.003906 31.289062 15.464844 29.320312 17.023438 27.421875 C 18.582031 25.523438 20.230469 23.703125 21.96875 21.96875 C 23.703125 20.230469 25.523438 18.582031 27.421875 17.023438 C 29.320312 15.464844 31.289062 14.003906 33.332031 12.640625 C 35.375 11.273438 37.480469 10.015625 39.644531 8.855469 C 41.8125 7.699219 44.03125 6.648438 46.296875 5.710938 C 48.566406 4.769531 50.878906 3.941406 53.230469 3.230469 C 55.578125 2.515625 57.960938 1.921875 60.367188 1.441406 C 62.777344 0.960938 65.203125 0.601562 67.648438 0.359375 C 70.09375 0.121094 72.542969 0 75 0 L 75 30 C 72.046875 30 69.117188 30.289062 66.222656 30.863281 C 63.324219 31.441406 60.507812 32.292969 57.777344 33.425781 C 55.050781 34.554688 52.457031 35.941406 50 37.582031 C 47.542969 39.226562 45.269531 41.089844 43.179688 43.179688 C 41.089844 45.269531 39.226562 47.542969 37.582031 50 C 35.941406 52.457031 34.554688 55.050781 33.425781 57.777344 C 32.292969 60.507812 31.441406 63.324219 30.863281 66.222656 C 30.289062 69.117188 30 72.046875 30 75 C 30 77.953125 30.289062 80.882812 30.863281 83.777344 C 31.441406 86.675781 32.292969 89.492188 33.425781 92.222656 C 34.554688 94.949219 35.941406 97.542969 37.582031 100 C 39.226562 102.457031 41.089844 104.730469 43.179688 106.820312 C 45.269531 108.910156 47.542969 110.773438 50 112.417969 C 52.457031 114.058594 55.050781 115.445312 57.777344 116.574219 C 60.507812 117.707031 63.324219 118.558594 66.222656 119.136719 C 69.117188 119.710938 72.046875 120 75 120 C 77.953125 120 80.882812 119.710938 83.777344 119.136719 C 86.675781 118.558594 89.492188 117.707031 92.222656 116.574219 C 94.949219 115.445312 97.542969 114.058594 100 112.417969 C 102.457031 110.773438 104.730469 108.910156 106.820312 106.820312 C 108.910156 104.730469 110.773438 102.457031 112.417969 100 C 114.058594 97.542969 115.445312 94.949219 116.574219 92.222656 C 117.707031 89.492188 118.558594 86.675781 119.136719 83.777344 C 119.710938 80.882812 120 77.953125 120 75 C 120 72.046875 119.710938 69.117188 119.136719 66.222656 C 118.558594 63.324219 117.707031 60.507812 116.574219 57.777344 C 115.445312 55.050781 114.058594 52.457031 112.417969 50 C 110.773438 47.542969 108.910156 45.269531 106.820312 43.179688 C 104.730469 41.089844 102.457031 39.226562 100 37.582031 C 97.542969 35.941406 94.949219 34.554688 92.222656 33.425781 C 89.492188 32.292969 86.675781 31.441406 83.777344 30.863281 C 80.882812 30.289062 77.953125 30 75 30 Z M 75 0 " clip-rule="nonzero"/></clipPath><clipPath id="131d9d8418"><path d="M 9 1 L 150 1 L 150 150 L 9 150 Z M 9 1 " clip-rule="nonzero"/></clipPath><clipPath id="3e76bf7a61"><path d="M 93.75 2.382812 C 96.699219 3.144531 99.589844 4.082031 102.425781 5.195312 C 105.257812 6.308594 108.015625 7.589844 110.691406 9.039062 C 113.371094 10.488281 115.949219 12.09375 118.433594 13.855469 C 120.914062 15.621094 123.28125 17.527344 125.53125 19.578125 C 127.78125 21.628906 129.898438 23.8125 131.882812 26.121094 C 133.867188 28.429688 135.707031 30.851562 137.394531 33.386719 C 139.085938 35.917969 140.613281 38.542969 141.984375 41.265625 C 143.355469 43.984375 144.554688 46.777344 145.582031 49.640625 C 146.613281 52.507812 147.464844 55.425781 148.140625 58.394531 C 148.8125 61.363281 149.304688 64.363281 149.613281 67.394531 C 149.921875 70.421875 150.046875 73.460938 149.984375 76.503906 C 149.925781 79.546875 149.679688 82.578125 149.25 85.59375 C 148.816406 88.605469 148.207031 91.585938 147.414062 94.523438 C 146.621094 97.464844 145.652344 100.347656 144.507812 103.167969 C 143.367188 105.988281 142.054688 108.730469 140.578125 111.394531 C 139.101562 114.058594 137.464844 116.621094 135.675781 119.082031 C 133.886719 121.546875 131.953125 123.894531 129.878906 126.121094 C 127.800781 128.347656 125.597656 130.441406 123.269531 132.402344 C 120.9375 134.363281 118.496094 136.175781 115.945312 137.835938 C 113.394531 139.5 110.753906 141 108.019531 142.339844 C 105.285156 143.679688 102.480469 144.851562 99.601562 145.851562 C 96.726562 146.847656 93.800781 147.667969 90.824219 148.3125 C 87.847656 148.953125 84.839844 149.414062 81.808594 149.691406 C 78.777344 149.964844 75.738281 150.058594 72.695312 149.964844 C 69.652344 149.871094 66.625 149.59375 63.613281 149.128906 C 60.605469 148.667969 57.632812 148.027344 54.703125 147.203125 C 51.773438 146.378906 48.902344 145.378906 46.089844 144.203125 C 43.28125 143.03125 40.554688 141.691406 37.90625 140.183594 C 35.261719 138.679688 32.714844 137.019531 30.269531 135.203125 C 27.828125 133.386719 25.5 131.429688 23.296875 129.328125 C 21.089844 127.230469 19.019531 125.003906 17.085938 122.652344 C 15.148438 120.300781 13.363281 117.839844 11.730469 115.273438 C 10.660156 113.59375 9.957031 111.777344 9.609375 109.816406 C 9.265625 107.859375 9.308594 105.90625 9.742188 103.964844 C 10.171875 102.023438 10.957031 100.238281 12.101562 98.609375 C 13.242188 96.980469 14.652344 95.632812 16.328125 94.5625 C 18.007812 93.496094 19.824219 92.789062 21.785156 92.445312 C 23.742188 92.101562 25.695312 92.144531 27.636719 92.574219 C 29.578125 93.007812 31.363281 93.792969 32.992188 94.933594 C 34.621094 96.074219 35.96875 97.484375 37.039062 99.164062 C 38.019531 100.703125 39.089844 102.179688 40.25 103.589844 C 41.410156 105.003906 42.652344 106.335938 43.976562 107.597656 C 45.300781 108.855469 46.695312 110.03125 48.164062 111.121094 C 49.628906 112.210938 51.15625 113.207031 52.742188 114.109375 C 54.332031 115.015625 55.96875 115.820312 57.65625 116.523438 C 59.339844 117.226562 61.0625 117.828125 62.820312 118.320312 C 64.582031 118.816406 66.363281 119.199219 68.167969 119.476562 C 69.976562 119.753906 71.789062 119.921875 73.617188 119.980469 C 75.441406 120.035156 77.265625 119.980469 79.085938 119.8125 C 80.90625 119.648438 82.707031 119.371094 84.492188 118.988281 C 86.28125 118.601562 88.035156 118.109375 89.761719 117.511719 C 91.488281 116.910156 93.171875 116.207031 94.8125 115.40625 C 96.453125 114.601562 98.035156 113.699219 99.566406 112.703125 C 101.097656 111.703125 102.5625 110.617188 103.960938 109.441406 C 105.359375 108.265625 106.679688 107.007812 107.925781 105.671875 C 109.171875 104.335938 110.332031 102.929688 111.40625 101.449219 C 112.480469 99.972656 113.460938 98.433594 114.347656 96.835938 C 115.234375 95.238281 116.019531 93.59375 116.707031 91.902344 C 117.390625 90.207031 117.972656 88.480469 118.449219 86.714844 C 118.925781 84.949219 119.289062 83.164062 119.550781 81.355469 C 119.808594 79.546875 119.953125 77.730469 119.992188 75.902344 C 120.027344 74.074219 119.953125 72.253906 119.769531 70.4375 C 119.582031 68.617188 119.289062 66.820312 118.882812 65.039062 C 118.480469 63.253906 117.96875 61.503906 117.351562 59.785156 C 116.730469 58.066406 116.011719 56.390625 115.191406 54.757812 C 114.367188 53.125 113.449219 51.550781 112.4375 50.03125 C 111.421875 48.511719 110.320312 47.058594 109.128906 45.671875 C 107.941406 44.285156 106.667969 42.976562 105.320312 41.746094 C 103.96875 40.515625 102.550781 39.371094 101.058594 38.3125 C 99.570312 37.253906 98.023438 36.292969 96.414062 35.421875 C 94.808594 34.554688 93.15625 33.785156 91.453125 33.117188 C 89.753906 32.449219 88.019531 31.886719 86.25 31.429688 C 84.324219 30.933594 82.566406 30.085938 80.976562 28.886719 C 79.386719 27.691406 78.089844 26.238281 77.078125 24.523438 C 76.066406 22.808594 75.425781 20.96875 75.148438 19 C 74.871094 17.027344 74.980469 15.082031 75.476562 13.15625 C 75.972656 11.230469 76.820312 9.472656 78.015625 7.882812 C 79.214844 6.292969 80.667969 4.992188 82.382812 3.984375 C 84.09375 2.972656 85.9375 2.328125 87.90625 2.050781 C 89.875 1.773438 91.824219 1.882812 93.75 2.382812 Z M 93.75 2.382812 " clip-rule="nonzero"/></clipPath></defs><g clip-path="url(#eeb3de9c8f)"><rect x="-15" width="180" fill="#000000" y="-15" height="179.999997" fill-opacity="1"/></g><g clip-path="url(#131d9d8418)"><g clip-path="url(#3e76bf7a61)"><rect x="-15" width="180" fill="#7cc6fe" y="-15" height="179.999997" fill-opacity="1"/></g></g></svg>