<svg xmlns="http://www.w3.org/2000/svg" xmlns:xlink="http://www.w3.org/1999/xlink" width="200" zoomAndPan="magnify" viewBox="0 0 150 149.999998" height="200" preserveAspectRatio="xMidYMid meet" version="1.0"><defs><clipPath id="b904b65563"><path d="M 75 0 C 77.457031 0 79.90625 0.121094 82.351562 0.359375 C 84.796875 0.601562 87.222656 0.960938 89.632812 1.441406 C 92.039062 1.921875 94.421875 2.515625 96.769531 3.230469 C 99.121094 3.941406 101.433594 4.769531 103.703125 5.710938 C 105.96875 6.648438 108.1875 7.699219 110.355469 8.855469 C 112.519531 10.015625 114.625 11.273438 116.667969 12.640625 C 118.710938 14.003906 120.679688 15.464844 122.578125 17.023438 C 124.476562 18.582031 126.296875 20.230469 128.03125 21.96875 C 129.769531 23.703125 131.417969 25.523438 132.976562 27.421875 C 134.535156 29.320312 135.996094 31.289062 137.359375 33.332031 C 138.726562 35.375 139.984375 37.480469 141.144531 39.644531 C 142.300781 41.8125 143.351562 44.03125 144.289062 46.296875 C 145.230469 48.566406 146.058594 50.878906 146.769531 53.230469 C 147.484375 55.578125 148.078125 57.960938 148.558594 60.367188 C 149.039062 62.777344 149.398438 65.203125 149.640625 67.648438 C 149.878906 70.09375 150 72.542969 150 75 C 150 77.457031 149.878906 79.90625 149.640625 82.351562 C 149.398438 84.796875 149.039062 87.222656 148.558594 89.632812 C 148.078125 92.039062 147.484375 94.421875 146.769531 96.769531 C 146.058594 99.121094 145.230469 101.433594 144.289062 103.703125 C 143.351562 105.96875 142.300781 108.1875 141.144531 110.355469 C 139.984375 112.519531 138.726562 114.625 137.359375 116.667969 C 135.996094 118.710938 134.535156 120.679688 132.976562 122.578125 C 131.417969 124.476562 129.769531 126.296875 128.03125 128.03125 C 126.296875 129.769531 124.476562 131.417969 122.578125 132.976562 C 120.679688 134.535156 118.710938 135.996094 116.667969 137.359375 C 114.625 138.726562 112.519531 139.984375 110.355469 141.144531 C 108.1875 142.300781 105.96875 143.351562 103.703125 144.289062 C 101.433594 145.230469 99.121094 146.058594 96.769531 146.769531 C 94.421875 147.484375 92.039062 148.078125 89.632812 148.558594 C 87.222656 149.039062 84.796875 149.398438 82.351562 149.640625 C 79.90625 149.878906 77.457031 150 75 150 C 72.542969 150 70.09375 149.878906 67.648438 149.640625 C 65.203125 149.398438 62.777344 149.039062 60.367188 148.558594 C 57.960938 148.078125 55.578125 147.484375 53.230469 146.769531 C 50.878906 146.058594 48.566406 145.230469 46.296875 144.289062 C 44.03125 143.351562 41.8125 142.300781 39.644531 141.144531 C 37.480469 139.984375 35.375 138.726562 33.332031 137.359375 C 31.289062 135.996094 29.320312 134.535156 27.421875 132.976562 C 25.523438 131.417969 23.703125 129.769531 21.96875 128.03125 C 20.230469 126.296875 18.582031 124.476562 17.023438 122.578125 C 15.464844 120.679688 14.003906 118.710938 12.640625 116.667969 C 11.273438 114.625 10.015625 112.519531 8.855469 110.355469 C 7.699219 108.1875 6.648438 105.96875 5.710938 103.703125 C 4.769531 101.433594 3.941406 99.121094 3.230469 96.769531 C 2.515625 94.421875 1.921875 92.039062 1.441406 89.632812 C 0.960938 87.222656 0.601562 84.796875 0.359375 82.351562 C 0.121094 79.90625 0 77.457031 0 75 C 0 72.542969 0.121094 70.09375 0.359375 67.648438 C 0.601562 65.203125 0.960938 62.777344 1.441406 60.367188 C 1.921875 57.960938 2.515625 55.578125 3.230469 53.230469 C 3.941406 50.878906 4.769531 48.566406 5.710938 46.296875 C 6.648438 44.03125 7.699219 41.8125 8.855469 39.644531 C 10.015625 37.480469 11.273438 35.375 12.640625 33.332031 C 14.003906 31.289062 15.464844 29.320312 17.023438 27.421875 C 18.582031 25.523438 20.230469 23.703125 21.96875 21.96875 C 23.703125 20.230469 25.523438 18.582031 27.421875 17.023438 C 29.320312 15.464844 31.289062 14.003906 33.332031 12.640625 C 35.375 11.273438 37.480469 10.015625 39.644531 8.855469 C 41.8125 7.699219 44.03125 6.648438 46.296875 5.710938 C 48.566406 4.769531 50.878906 3.941406 53.230469 3.230469 C 55.578125 2.515625 57.960938 1.921875 60.367188 1.441406 C 62.777344 0.960938 65.203125 0.601562 67.648438 0.359375 C 70.09375 0.121094 72.542969 0 75 0 L 75 30 C 72.046875 30 69.117188 30.289062 66.222656 30.863281 C 63.324219 31.441406 60.507812 32.292969 57.777344 33.425781 C 55.050781 34.554688 52.457031 35.941406 50 37.582031 C 47.542969 39.226562 45.269531 41.089844 43.179688 43.179688 C 41.089844 45.269531 39.226562 47.542969 37.582031 50 C 35.941406 52.457031 34.554688 55.050781 33.425781 57.777344 C 32.292969 60.507812 31.441406 63.324219 30.863281 66.222656 C 30.289062 69.117188 30 72.046875 30 75 C 30 77.953125 30.289062 80.882812 30.863281 83.777344 C 31.441406 86.675781 32.292969 89.492188 33.425781 92.222656 C 34.554688 94.949219 35.941406 97.542969 37.582031 100 C 39.226562 102.457031 41.089844 104.730469 43.179688 106.820312 C 45.269531 108.910156 47.542969 110.773438 50 112.417969 C 52.457031 114.058594 55.050781 115.445312 57.777344 116.574219 C 60.507812 117.707031 63.324219 118.558594 66.222656 119.136719 C 69.117188 119.710938 72.046875 120 75 120 C 77.953125 120 80.882812 119.710938 83.777344 119.136719 C 86.675781 118.558594 89.492188 117.707031 92.222656 116.574219 C 94.949219 115.445312 97.542969 114.058594 100 112.417969 C 102.457031 110.773438 104.730469 108.910156 106.820312 106.820312 C 108.910156 104.730469 110.773438 102.457031 112.417969 100 C 114.058594 97.542969 115.445312 94.949219 116.574219 92.222656 C 117.707031 89.492188 118.558594 86.675781 119.136719 83.777344 C 119.710938 80.882812 120 77.953125 120 75 C 120 72.046875 119.710938 69.117188 119.136719 66.222656 C 118.558594 63.324219 117.707031 60.507812 116.574219 57.777344 C 115.445312 55.050781 114.058594 52.457031 112.417969 50 C 110.773438 47.542969 108.910156 45.269531 106.820312 43.179688 C 104.730469 41.089844 102.457031 39.226562 100 37.582031 C 97.542969 35.941406 94.949219 34.554688 92.222656 33.425781 C 89.492188 32.292969 86.675781 31.441406 83.777344 30.863281 C 80.882812 30.289062 77.953125 30 75 30 Z M 75 0 " clip-rule="nonzero"/></clipPath><clipPath id="0126fa3bbf"><path d="M 0 1 L 150 1 L 150 150 L 0 150 Z M 0 1 " clip-rule="nonzero"/></clipPath><clipPath id="10cd07a0f9"><path d="M 93.75 2.382812 C 96.285156 3.035156 98.78125 3.820312 101.234375 4.738281 C 103.6875 5.652344 106.085938 6.695312 108.429688 7.863281 C 110.773438 9.03125 113.050781 10.316406 115.261719 11.722656 C 117.472656 13.128906 119.601562 14.644531 121.652344 16.277344 C 123.703125 17.90625 125.664062 19.636719 127.53125 21.472656 C 129.402344 23.304688 131.167969 25.230469 132.835938 27.25 C 134.503906 29.273438 136.0625 31.371094 137.507812 33.554688 C 138.957031 35.738281 140.285156 37.992188 141.496094 40.3125 C 142.707031 42.636719 143.792969 45.015625 144.757812 47.449219 C 145.71875 49.886719 146.550781 52.363281 147.253906 54.886719 C 147.957031 57.410156 148.523438 59.964844 148.957031 62.546875 C 149.394531 65.128906 149.691406 67.726562 149.855469 70.339844 C 150.019531 72.957031 150.042969 75.570312 149.933594 78.1875 C 149.820312 80.804688 149.574219 83.40625 149.1875 85.996094 C 148.804688 88.589844 148.285156 91.152344 147.632812 93.6875 C 146.980469 96.226562 146.199219 98.71875 145.285156 101.175781 C 144.371094 103.628906 143.332031 106.027344 142.164062 108.375 C 141 110.71875 139.714844 112.996094 138.3125 115.207031 C 136.90625 117.417969 135.390625 119.550781 133.765625 121.601562 C 132.136719 123.65625 130.40625 125.617188 128.574219 127.488281 C 126.742188 129.359375 124.816406 131.128906 122.796875 132.796875 C 120.777344 134.464844 118.679688 136.023438 116.496094 137.472656 C 114.316406 138.921875 112.0625 140.253906 109.742188 141.46875 C 107.421875 142.679688 105.042969 143.769531 102.609375 144.734375 C 100.175781 145.699219 97.695312 146.53125 95.171875 147.234375 C 92.652344 147.941406 90.097656 148.511719 87.515625 148.949219 C 84.933594 149.386719 82.335938 149.6875 79.722656 149.851562 C 77.109375 150.015625 74.492188 150.042969 71.875 149.933594 C 69.257812 149.824219 66.65625 149.582031 64.066406 149.199219 C 61.472656 148.816406 58.910156 148.300781 56.371094 147.648438 C 53.835938 147 51.339844 146.21875 48.886719 145.304688 C 46.429688 144.394531 44.027344 143.355469 41.683594 142.195312 C 39.335938 141.03125 37.058594 139.746094 34.84375 138.34375 C 32.632812 136.941406 30.5 135.429688 28.445312 133.804688 C 26.394531 132.175781 24.429688 130.449219 22.558594 128.617188 C 20.6875 126.785156 18.914062 124.863281 17.242188 122.847656 C 15.574219 120.828125 14.011719 118.730469 12.5625 116.550781 C 11.109375 114.371094 9.777344 112.121094 8.5625 109.800781 C 7.347656 107.480469 6.257812 105.101562 5.289062 102.667969 C 4.324219 100.234375 3.488281 97.757812 2.78125 95.234375 C 2.074219 92.710938 1.5 90.160156 1.0625 87.578125 C 0.625 84.996094 0.320312 82.398438 0.152344 79.785156 C -0.015625 77.171875 -0.0429688 74.554688 0.0625 71.941406 C 0.167969 69.324219 0.414062 66.71875 0.792969 64.128906 C 1.171875 61.535156 1.6875 58.972656 2.335938 56.433594 C 2.984375 53.898438 3.761719 51.398438 4.671875 48.945312 C 5.582031 46.488281 6.617188 44.085938 7.777344 41.738281 C 8.941406 39.390625 10.222656 37.113281 11.621094 34.898438 C 12.683594 33.21875 14.03125 31.804688 15.65625 30.660156 C 17.28125 29.511719 19.0625 28.722656 21.003906 28.285156 C 22.945312 27.847656 24.894531 27.800781 26.855469 28.140625 C 28.816406 28.476562 30.636719 29.179688 32.316406 30.242188 C 34 31.308594 35.410156 32.652344 36.558594 34.277344 C 37.703125 35.902344 38.496094 37.6875 38.929688 39.628906 C 39.367188 41.566406 39.417969 43.519531 39.078125 45.476562 C 38.738281 47.4375 38.035156 49.257812 36.972656 50.9375 C 35.289062 53.601562 33.898438 56.410156 32.804688 59.367188 C 31.707031 62.320312 30.933594 65.359375 30.476562 68.476562 C 30.019531 71.59375 29.890625 74.726562 30.089844 77.871094 C 30.292969 81.015625 30.820312 84.105469 31.667969 87.140625 C 32.519531 90.175781 33.675781 93.089844 35.136719 95.878906 C 36.597656 98.671875 38.335938 101.28125 40.347656 103.707031 C 42.355469 106.132812 44.597656 108.324219 47.066406 110.28125 C 49.539062 112.238281 52.1875 113.917969 55.007812 115.316406 C 57.832031 116.714844 60.769531 117.808594 63.824219 118.589844 C 66.875 119.371094 69.976562 119.828125 73.125 119.960938 C 76.273438 120.09375 79.402344 119.894531 82.507812 119.367188 C 85.617188 118.84375 88.636719 118 91.566406 116.839844 C 94.496094 115.679688 97.273438 114.226562 99.898438 112.484375 C 102.523438 110.742188 104.9375 108.742188 107.144531 106.492188 C 109.351562 104.242188 111.296875 101.785156 112.988281 99.125 C 114.675781 96.464844 116.070312 93.65625 117.171875 90.703125 C 118.269531 87.75 119.050781 84.714844 119.511719 81.597656 C 119.976562 78.480469 120.109375 75.351562 119.914062 72.203125 C 119.71875 69.058594 119.195312 65.96875 118.351562 62.933594 C 117.507812 59.898438 116.355469 56.980469 114.898438 54.1875 C 113.441406 51.394531 111.707031 48.78125 109.703125 46.351562 C 107.695312 43.921875 105.457031 41.726562 102.992188 39.765625 C 100.523438 37.804688 97.878906 36.121094 95.058594 34.71875 C 92.238281 33.3125 89.300781 32.214844 86.25 31.429688 C 84.324219 30.933594 82.566406 30.085938 80.976562 28.886719 C 79.386719 27.691406 78.089844 26.238281 77.078125 24.523438 C 76.066406 22.808594 75.425781 20.96875 75.148438 19 C 74.871094 17.027344 74.980469 15.082031 75.476562 13.15625 C 75.972656 11.230469 76.820312 9.472656 78.015625 7.882812 C 79.214844 6.292969 80.667969 4.992188 82.382812 3.984375 C 84.09375 2.972656 85.9375 2.328125 87.90625 2.050781 C 89.875 1.773438 91.824219 1.882812 93.75 2.382812 Z M 93.75 2.382812 " clip-rule="nonzero"/></clipPath></defs><g clip-path="url(#b904b65563)"><rect x="-15" width="180" fill="#000000" y="-15" height="179.999997" fill-opacity="1"/></g><g clip-path="url(#0126fa3bbf)"><g clip-path="url(#10cd07a0f9)"><rect x="-15" width="180" fill="#7cc6fe" y="-15" height="179.999997" fill-opacity="1"/></g></g></svg>